<?xml version="1.0" encoding="UTF-8"?>
<svg width="101px" height="93px" viewBox="0 0 101 93" version="1.1" xmlns="http://www.w3.org/2000/svg" xmlns:xlink="http://www.w3.org/1999/xlink">
    <!-- Generator: Sketch 53 (72520) - https://sketchapp.com -->
    <title>无内容</title>
    <desc>Created with Sketch.</desc>
    <defs>
        <linearGradient x1="79.2778828%" y1="96.6695937%" x2="20.7221172%" y2="3.49587001%" id="linearGradient-1">
            <stop stop-color="#DADDE5" offset="0%"></stop>
            <stop stop-color="#C5CAD7" offset="100%"></stop>
        </linearGradient>
        <linearGradient x1="49.2495774%" y1="3.94711776%" x2="52.6227664%" y2="95.0268085%" id="linearGradient-2">
            <stop stop-color="#DADDE5" offset="0%"></stop>
            <stop stop-color="#C5CAD7" offset="100%"></stop>
        </linearGradient>
        <linearGradient x1="100%" y1="48.936832%" x2="6.97769248%" y2="52.4252348%" id="linearGradient-3">
            <stop stop-color="#DADDE5" offset="0%"></stop>
            <stop stop-color="#C5CAD7" offset="100%"></stop>
        </linearGradient>
        <linearGradient x1="50%" y1="96.5656996%" x2="48.0713217%" y2="4.93851886%" id="linearGradient-4">
            <stop stop-color="#DADDE5" offset="0%"></stop>
            <stop stop-color="#C5CAD7" offset="100%"></stop>
        </linearGradient>
        <linearGradient x1="5.14635743%" y1="50%" x2="92.684912%" y2="47.5747652%" id="linearGradient-5">
            <stop stop-color="#DADDE5" offset="0%"></stop>
            <stop stop-color="#C5CAD7" offset="100%"></stop>
        </linearGradient>
        <rect id="path-6" x="9.01333333" y="6.24" width="61.0133333" height="79.7333333" rx="5"></rect>
        <filter x="-2.5%" y="-1.9%" width="104.9%" height="103.8%" filterUnits="objectBoundingBox" id="filter-8">
            <feOffset dx="0" dy="0" in="SourceAlpha" result="shadowOffsetOuter1"></feOffset>
            <feGaussianBlur stdDeviation="0.5" in="shadowOffsetOuter1" result="shadowBlurOuter1"></feGaussianBlur>
            <feColorMatrix values="0 0 0 0 0.291092052   0 0 0 0 0.380646191   0 0 0 0 0.561141304  0 0 0 0.2 0" type="matrix" in="shadowBlurOuter1"></feColorMatrix>
        </filter>
        <linearGradient x1="71.6713109%" y1="11.9695999%" x2="30.3341103%" y2="91.5543891%" id="linearGradient-9">
            <stop stop-color="#A5ACBE" offset="0%"></stop>
            <stop stop-color="#C3C9D5" offset="100%"></stop>
        </linearGradient>
        <linearGradient x1="15.8638516%" y1="111.866497%" x2="58.1652518%" y2="40.4514765%" id="linearGradient-10">
            <stop stop-color="#DDE0E7" offset="0%"></stop>
            <stop stop-color="#B7BFD0" offset="100%"></stop>
        </linearGradient>
    </defs>
    <g id="Page-2" stroke="none" stroke-width="1" fill="none" fill-rule="evenodd">
        <g id="骨架图、提醒为空" transform="translate(-1025.000000, -180.000000)">
            <g id="Group-19" transform="translate(823.000000, 76.000000)">
                <g id="Group-27-Copy" transform="translate(189.000000, 94.000000)">
                    <g id="无内容" transform="translate(11.000000, 0.000000)">
                        <rect id="Rectangle" x="0" y="0" width="104" height="104"></rect>
                        <path d="M26.4933333,16.64 L77.5066667,16.64 C80.2680904,16.64 82.5066667,18.8785763 82.5066667,21.64 L82.5066667,91.3733333 C82.5066667,94.1347571 80.2680904,96.3733333 77.5066667,96.3733333 L26.4933333,96.3733333 C23.7319096,96.3733333 21.4933333,94.1347571 21.4933333,91.3733333 L21.4933333,21.64 C21.4933333,18.8785763 23.7319096,16.64 26.4933333,16.64 Z" id="Rectangle" fill="url(#linearGradient-1)" transform="translate(52.000000, 56.506667) rotate(-15.000000) translate(-52.000000, -56.506667) "></path>
                        <g id="Group-26" transform="translate(12.480000, 10.400000)">
                            <path d="M9.01333333,13.007893 L9.01333333,50.1229455 L0.631809551,18.8426729 C0.136277937,16.9933238 1.2337639,15.0924223 3.08311306,14.5968907 L9.01333333,13.007893 Z" id="Path" fill="url(#linearGradient-2)"></path>
                            <path d="M34.2714538,6.24 L55.3203817,0.599956746 C57.1697309,0.104425132 59.0706324,1.2019111 59.566164,3.05126025 L60.4205842,6.24 L34.2714538,6.24 L34.2714538,6.24 Z" id="Path" fill="url(#linearGradient-3)"></path>
                            <path d="M70.0266667,42.0903878 L78.4081904,73.3706604 C78.9037221,75.2200096 77.8062361,77.120911 75.9568869,77.6164426 L70.0266667,79.2054404 L70.0266667,42.0903878 L70.0266667,42.0903878 Z" id="Path" fill="url(#linearGradient-4)"></path>
                            <path d="M44.7685462,85.9733333 L23.7196183,91.6133766 C21.8702691,92.1089082 19.9693676,91.0114222 19.473836,89.1620731 L18.6194158,85.9733333 L44.7685462,85.9733333 Z" id="Path" fill="url(#linearGradient-5)"></path>
                            <mask id="mask-7" fill="white">
                                <use xlink:href="#path-6"></use>
                            </mask>
                            <g id="Rectangle">
                                <use fill="black" fill-opacity="1" filter="url(#filter-8)" xlink:href="#path-6"></use>
                                <use fill="#EDEEF4" fill-rule="evenodd" xlink:href="#path-6"></use>
                            </g>
                            <rect id="Rectangle" fill="#CDD2DD" opacity="0.4" mask="url(#mask-7)" x="19.4933333" y="7" width="1" height="79"></rect>
                            <rect id="Rectangle-Copy-30" fill="#CDD2DD" opacity="0.4" mask="url(#mask-7)" x="9.01333333" y="27.6" width="61" height="1"></rect>
                            <rect id="Rectangle-Copy-36" fill="#CDD2DD" opacity="0.4" mask="url(#mask-7)" x="9.01333333" y="18.6" width="61" height="1"></rect>
                            <rect id="Rectangle-Copy-31" fill="#CDD2DD" opacity="0.4" mask="url(#mask-7)" x="9.01333333" y="36.6" width="61" height="1"></rect>
                            <rect id="Rectangle-Copy-32" fill="#CDD2DD" opacity="0.4" mask="url(#mask-7)" x="9.01333333" y="45.6" width="61" height="1"></rect>
                            <rect id="Rectangle-Copy-33" fill="#CDD2DD" opacity="0.4" mask="url(#mask-7)" x="9.01333333" y="54.6" width="61" height="1"></rect>
                            <rect id="Rectangle-Copy-34" fill="#CDD2DD" opacity="0.4" mask="url(#mask-7)" x="9.01333333" y="63.6" width="61" height="1"></rect>
                            <rect id="Rectangle-Copy-35" fill="#CDD2DD" opacity="0.4" mask="url(#mask-7)" x="9.01333333" y="72.6" width="61" height="1"></rect>
                        </g>
                        <g id="编辑" transform="translate(52.000000, 40.213333)">
                            <path d="M4.93795795,41.1838119 L3.70346845,41.1838119 L3.70346845,39.9357178 L2.46897896,39.9357178 L2.46897896,38.6876237 L3.70346845,37.4395296 L6.17244745,39.9357178 L4.93795795,41.1838119 Z M0,37.4395296 L0,43.68 L6.17244745,43.68 L39.0127367,7.60557096 C40.6688387,5.78637453 40.6109048,2.98906426 38.8809019,1.23999603 L38.8809019,1.23999603 C37.263441,-0.395290045 34.6265685,-0.40974013 32.9912824,1.20772086 C32.9395861,1.25885366 32.8892378,1.31133156 32.8402892,1.3651006 L0,37.4395296 Z" id="Shape" fill="url(#linearGradient-9)"></path>
                            <path d="M30.5066667,20.5764192 L7.07933484,45.76 L0.693333333,45.76 L0.693333333,42.6567158 L6.2952427,42.6567158 L30.5066667,16.6302628 L30.5066667,20.5764192 Z" id="Combined-Shape" fill="url(#linearGradient-10)" opacity="0.300000012"></path>
                        </g>
                        <circle id="Oval" fill="#D2D6DF" cx="5.48166667" cy="83.8283333" r="2.70833333"></circle>
                        <circle id="Oval-Copy-6" fill="#D2D6DF" cx="93.6866667" cy="19.3266667" r="2.16666667"></circle>
                        <circle id="Oval-Copy-9" fill="#E1E3EB" cx="99.6233333" cy="42.0766667" r="3.25"></circle>
                        <circle id="Oval-Copy-7" fill="#D2D6DF" cx="88.985" cy="29.185" r="1.625"></circle>
                        <circle id="Oval-Copy-10" fill="#E1E3EB" cx="12.48" cy="72.8" r="1.38666667"></circle>
                    </g>
                </g>
            </g>
        </g>
    </g>
</svg>